<svg width="56" height="56" viewBox="0 0 56 56" fill="currentColor" xmlns="http://www.w3.org/2000/svg">
<path d="M53.2 28.0177C53.2 20.2075 53.1706 19.2585 53.029 16.1474L53.0151 15.8717C52.861 13.0614 52.3753 11.4523 51.9405 10.3358C51.9402 10.335 51.9399 10.3342 51.9396 10.3335C51.3515 8.81511 50.6242 7.69586 49.4811 6.55249L49.374 6.44683C48.2685 5.36708 47.1745 4.66609 45.7026 4.09582C45.7013 4.0953 45.6999 4.09478 45.6986 4.09426C44.5439 3.6428 42.866 3.14247 39.8877 3.00595C39.6266 2.99409 39.3813 2.98306 39.146 2.97273H16.8879C16.653 2.98303 16.408 2.99403 16.1473 3.00587L16.1474 3.00595C13.1809 3.14193 11.5057 3.64068 10.3542 4.08729C10.3477 4.08982 10.3411 4.09232 10.3345 4.09475C8.90689 4.62399 7.61483 5.46417 6.55199 6.55446C6.54851 6.55802 6.545 6.5616 6.54149 6.56512C5.40806 7.70324 4.68278 8.81757 4.09589 10.3322C4.09538 10.3335 4.09485 10.3349 4.09434 10.3362C3.64289 11.4908 3.14242 13.1694 3.00587 16.1477C2.99405 16.4077 2.98298 16.652 2.97272 16.8862V39.1473C2.98303 39.3822 2.99411 39.627 3.00595 39.8875L3.013 40.0311L4.08449 45.6734L4.08703 45.6801L4.09475 45.7005C4.6058 47.0782 5.40619 48.3299 6.44125 49.3709L6.54214 49.471L6.56396 49.4927C7.59104 50.5427 8.83104 51.3598 10.2001 51.8895L10.354 51.9478C11.5076 52.3971 13.1843 52.8934 16.1482 53.0292C19.2593 53.1708 20.2053 53.2 28.0174 53.2C35.8296 53.2 36.7767 53.1708 39.8877 53.0292L40.162 53.0155C42.9582 52.8621 44.5653 52.3805 45.6811 51.9479L45.7004 51.9405C47.1226 51.4132 48.4106 50.5771 49.4711 49.4928L49.4929 49.471C50.5766 48.4106 51.4123 47.1236 51.9399 45.702L51.9478 45.681C52.3971 44.5273 52.8934 42.8509 53.029 39.887C53.1706 36.7758 53.2 35.8277 53.2 28.0177ZM38.9884 28.0177C38.9884 25.108 37.8325 22.3174 35.7752 20.26L35.6783 20.1643C33.6305 18.1667 30.8817 17.0467 28.0174 17.0467C26.5767 17.0467 25.1502 17.3305 23.8193 17.8818H23.8191C22.488 18.4331 21.2787 19.2412 20.26 20.26C19.2731 21.2469 18.4838 22.4128 17.9342 23.6948L17.8818 23.8192C17.3305 25.1501 17.0467 26.5769 17.0467 28.0177C17.0467 29.4584 17.3305 30.8849 17.8818 32.2158C18.4331 33.5469 19.2412 34.7563 20.26 35.7752C21.2789 36.7939 22.4881 37.602 23.8191 38.1532C25.1501 38.7045 26.5767 38.9884 28.0174 38.9884C30.9271 38.9884 33.7177 37.8324 35.7752 35.7751C37.8325 33.7176 38.9884 30.9271 38.9884 28.0177ZM46.0153 12.7184C46.0153 12.1479 45.7885 11.6005 45.3851 11.1969L45.3468 11.1595C44.9472 10.7793 44.4162 10.5665 43.8634 10.5665C43.2926 10.5665 42.7453 10.7933 42.3417 11.1969C41.9381 11.6005 41.7113 12.1479 41.7113 12.7184C41.7113 13.289 41.9381 13.8364 42.3417 14.24C42.7453 14.6436 43.2926 14.8704 43.8634 14.8704C44.4341 14.8704 44.9815 14.6436 45.3851 14.24C45.7885 13.8363 46.0153 13.2889 46.0153 12.7184ZM41.8272 28.0177C41.8272 31.6801 40.3724 35.1926 37.7825 37.7825C35.1926 40.3724 31.68 41.8272 28.0174 41.8272C24.355 41.8272 20.8425 40.3724 18.2526 37.7825C15.6628 35.1926 14.2077 31.6801 14.2077 28.0177C14.2077 24.355 15.6627 20.8424 18.2526 18.2525L18.3746 18.1319C20.9523 15.6176 24.4122 14.2077 28.0174 14.2077C31.6801 14.2077 35.1926 15.6627 37.7825 18.2525C40.3725 20.8424 41.8272 24.355 41.8272 28.0177ZM56 28.0177C56 35.8381 55.9706 36.838 55.8262 40.0126L55.8608 40.0143C55.7243 43.004 55.2535 44.9961 54.5882 46.7153L54.5795 46.7385L54.5793 46.7389C53.907 48.5235 52.8542 50.1399 51.4935 51.4761L51.4899 51.4795L51.4853 51.4845C51.4828 51.487 51.4804 51.4895 51.478 51.492C50.1437 52.851 48.531 53.9011 46.7528 54.5719L46.7267 54.582L46.7268 54.5821C45.0053 55.2516 43.0111 55.7239 40.0144 55.861L40.0128 55.8264C36.8387 55.9709 35.8394 56 28.0174 56C20.1948 56 19.1971 55.9708 16.0221 55.8263L16.0206 55.861C13.0312 55.7243 11.0393 55.2536 9.32013 54.5883L9.29634 54.5793C7.5146 53.9083 5.90027 52.8575 4.56536 51.5001L4.54977 51.4845L4.5405 51.4754C3.17937 50.1383 2.12804 48.5219 1.45794 46.7398L1.44867 46.7153C0.781551 44.9965 0.31085 43.0047 0.174152 40.0143C0.0331655 36.9241 7.13796e-08 35.9533 0 28.0177C0 20.0828 0.0351547 19.1106 0.174234 16.022V16.021C0.311257 13.0269 0.785202 11.0307 1.45121 9.30825L1.45564 9.29635L1.45572 9.29619C2.12789 7.51166 3.18092 5.89505 4.54141 4.55888L4.55051 4.54978L4.55707 4.54313C5.8928 3.18245 7.5078 2.13129 9.2883 1.46065L9.31578 1.45015C11.0356 0.782215 13.0282 0.310956 16.0207 0.174152C19.1109 0.0331654 20.0836 6.42562e-08 28.0174 0C35.9521 0 36.9235 0.0351019 40.012 0.174152L40.013 0.174234C43.0055 0.311128 45.0011 0.784435 46.723 1.44974L46.7447 1.45794C48.471 2.10916 50.0402 3.11688 51.3501 4.41476L51.4761 4.54141L51.478 4.5433L51.4822 4.54756L51.4858 4.55109L51.4919 4.557C52.8101 5.85162 53.8394 7.40975 54.5131 9.12876L54.5773 9.29561L54.5883 9.32523C55.2543 11.0428 55.7244 13.0336 55.8608 16.0208L55.8262 16.0223C55.9706 19.1965 56 20.1975 56 28.0177ZM48.8152 12.7184C48.8152 14.0319 48.2933 15.2913 47.3652 16.2198L47.365 16.2199C46.4363 17.1486 45.1766 17.6703 43.8634 17.6703C42.5499 17.6703 41.2906 17.1486 40.3619 16.2199C39.4334 15.2914 38.9114 14.0319 38.9114 12.7184C38.9114 11.4255 39.4171 10.1848 40.3187 9.26067L40.3619 9.21686C41.2906 8.28825 42.5499 7.76655 43.8634 7.76655C45.1561 7.76655 46.3969 8.27208 47.3212 9.17371L47.365 9.21695L47.3652 9.21711C48.2933 10.1456 48.8152 11.405 48.8152 12.7184Z" fill="currentColor" style="fill:currentColor;fill-opacity:1;"/>
</svg>
