<svg width="265" height="100" viewBox="0 0 265 100" fill="none" xmlns="http://www.w3.org/2000/svg">
<path d="M24.6958 99.9848C19.5621 99.9848 15.678 98.7926 13.0378 96.408C10.3977 94.0234 9.07214 90.4769 9.07214 85.7785V58.644C9.07214 56.7192 8.63212 55.335 7.75206 54.4761C6.87201 53.6223 5.58996 53.1929 3.90591 53.1929H0.396567C0.17927 53.1929 0 53.0312 0 52.8241V47.1456C0 46.9435 0.173837 46.7768 0.396567 46.7768H3.90591C5.58996 46.7768 6.87201 46.3474 7.75206 45.4936C8.63212 44.6398 9.07214 43.2505 9.07214 41.3257V14.2063C9.07214 9.4372 10.3922 5.87552 13.0378 3.52632C15.678 1.17712 19.5621 0 24.6958 0H28.6669C28.8842 0 29.0634 0.161665 29.0634 0.368799V5.93614C29.0634 6.13822 28.8896 6.30494 28.6669 6.30494H25.9615C23.0498 6.30494 20.8659 7.05264 19.4155 8.54805C17.9596 10.0434 17.2316 12.1451 17.2316 14.8479V41.2347C17.2316 43.3717 16.96 45.044 16.4276 46.2564C15.8898 47.4689 15.0695 48.3935 13.9559 49.0351C12.9509 49.616 11.6743 50.0808 10.1315 50.4294C9.887 50.485 9.64798 50.3082 9.64798 50.0707V49.9091C9.64798 49.6767 9.87614 49.4999 10.1206 49.5504C11.6688 49.8434 12.9455 50.293 13.9559 50.9094C15.0641 51.5863 15.8898 52.5311 16.4276 53.7385C16.96 54.951 17.2316 56.6232 17.2316 58.7602V85.147C17.2316 87.8549 17.9596 89.9566 19.4155 91.452C20.8714 92.9474 23.0498 93.6951 25.9615 93.6951H28.6669C28.8842 93.6951 29.0634 93.8567 29.0634 94.0639V99.6312C29.0634 99.8333 28.8896 100 28.6669 100H24.6958V99.9848Z" fill="white" style="fill:white;fill-opacity:1;"/>
<path d="M75.3042 99.9848C80.4378 99.9848 84.322 98.7926 86.9622 96.408C89.6023 94.0234 90.9279 90.4769 90.9279 85.7785V58.644C90.9279 56.7192 91.3679 55.335 92.2479 54.4761C93.128 53.6223 94.41 53.1929 96.0941 53.1929H99.6034C99.8207 53.1929 100 53.0312 100 52.8241V47.1456C100 46.9435 99.8262 46.7768 99.6034 46.7768H96.0941C94.41 46.7768 93.128 46.3474 92.2479 45.4936C91.3679 44.6398 90.9279 43.2505 90.9279 41.3257V14.2063C90.9279 9.4372 89.6078 5.87552 86.9622 3.52632C84.322 1.17712 80.4324 0 75.3042 0H71.3331C71.1158 0 70.9365 0.161665 70.9365 0.368799V5.93614C70.9365 6.13822 71.1104 6.30494 71.3331 6.30494H74.0385C76.9502 6.30494 79.1341 7.05264 80.5845 8.54805C82.0404 10.0434 82.7684 12.1451 82.7684 14.8479V41.2347C82.7684 43.3717 83.04 45.044 83.5724 46.2564C84.1102 47.4689 84.9305 48.3935 86.0441 49.0351C87.0491 49.616 88.3257 50.0808 89.8685 50.4294C90.113 50.485 90.352 50.3082 90.352 50.0707V49.9091C90.352 49.6767 90.1239 49.4999 89.8794 49.5504C88.3312 49.8434 87.0545 50.293 86.0441 50.9094C84.9359 51.5863 84.1102 52.5311 83.5724 53.7385C83.04 54.951 82.7684 56.6232 82.7684 58.7602V85.147C82.7684 87.8549 82.0404 89.9566 80.5845 91.452C79.1286 92.9474 76.9502 93.6951 74.0385 93.6951H71.3331C71.1158 93.6951 70.9365 93.8567 70.9365 94.0639V99.6312C70.9365 99.8333 71.1104 100 71.3331 100H75.3042V99.9848Z" fill="white" style="fill:white;fill-opacity:1;"/>
<path d="M66.9926 81.853H33.002L42.2425 48.2014C42.2316 48.0701 42.1556 47.9236 42.0252 47.767C41.2375 46.7667 38.5104 45.2915 37.6032 44.377C27.0969 33.7577 36.4461 18.0307 49.9946 18.1368C52.0263 18.1519 54.1395 18.5157 56.3016 19.3139C69.6708 24.2194 69.9696 41.3408 57.9042 47.767C57.8879 47.7771 57.8607 47.7922 57.8498 47.7973L66.9926 81.853Z" fill="white" style="fill:white;fill-opacity:1;"/>
<path d="M142.9 72.6C140.2 72.6 137.683 72.1667 135.35 71.3C133.05 70.4 131.05 69.1333 129.35 67.5C127.65 65.8667 126.317 63.95 125.35 61.75C124.417 59.55 123.95 57.1333 123.95 54.5C123.95 51.8667 124.417 49.45 125.35 47.25C126.317 45.05 127.65 43.1333 129.35 41.5C131.083 39.8667 133.1 38.6167 135.4 37.75C137.7 36.85 140.217 36.4 142.95 36.4C145.983 36.4 148.717 36.9333 151.15 38C153.617 39.0333 155.683 40.5667 157.35 42.6L152.15 47.4C150.95 46.0333 149.617 45.0167 148.15 44.35C146.683 43.65 145.083 43.3 143.35 43.3C141.717 43.3 140.217 43.5667 138.85 44.1C137.483 44.6333 136.3 45.4 135.3 46.4C134.3 47.4 133.517 48.5833 132.95 49.95C132.417 51.3167 132.15 52.8333 132.15 54.5C132.15 56.1667 132.417 57.6833 132.95 59.05C133.517 60.4167 134.3 61.6 135.3 62.6C136.3 63.6 137.483 64.3667 138.85 64.9C140.217 65.4333 141.717 65.7 143.35 65.7C145.083 65.7 146.683 65.3667 148.15 64.7C149.617 64 150.95 62.95 152.15 61.55L157.35 66.35C155.683 68.3833 153.617 69.9333 151.15 71C148.717 72.0667 145.967 72.6 142.9 72.6ZM165.182 82.1C163.782 82.1 162.398 81.8833 161.032 81.45C159.665 81.0167 158.548 80.4167 157.682 79.65L160.532 74.1C161.132 74.6333 161.815 75.05 162.582 75.35C163.382 75.65 164.165 75.8 164.932 75.8C166.032 75.8 166.898 75.5333 167.532 75C168.198 74.5 168.798 73.65 169.332 72.45L170.732 69.15L171.332 68.3L180.982 45.1H188.482L176.332 73.65C175.465 75.8167 174.465 77.5167 173.332 78.75C172.232 79.9833 170.998 80.85 169.632 81.35C168.298 81.85 166.815 82.1 165.182 82.1ZM169.782 73.05L157.782 45.1H165.832L175.132 67.6L169.782 73.05ZM192.214 72V37H209.314C213.714 37 217.014 37.8333 219.214 39.5C221.448 41.1667 222.564 43.3667 222.564 46.1C222.564 47.9333 222.114 49.5333 221.214 50.9C220.314 52.2333 219.081 53.2667 217.514 54C215.948 54.7333 214.148 55.1 212.114 55.1L213.064 53.05C215.264 53.05 217.214 53.4167 218.914 54.15C220.614 54.85 221.931 55.9 222.864 57.3C223.831 58.7 224.314 60.4167 224.314 62.45C224.314 65.45 223.131 67.8 220.764 69.5C218.398 71.1667 214.914 72 210.314 72H192.214ZM200.264 65.9H209.714C211.814 65.9 213.398 65.5667 214.464 64.9C215.564 64.2 216.114 63.1 216.114 61.6C216.114 60.1333 215.564 59.05 214.464 58.35C213.398 57.6167 211.814 57.25 209.714 57.25H199.664V51.35H208.314C210.281 51.35 211.781 51.0167 212.814 50.35C213.881 49.65 214.414 48.6 214.414 47.2C214.414 45.8333 213.881 44.8167 212.814 44.15C211.781 43.45 210.281 43.1 208.314 43.1H200.264V65.9ZM230.447 72V37H245.397C250.264 37 254.047 38.1333 256.747 40.4C259.447 42.6333 260.797 45.7333 260.797 49.7C260.797 52.3 260.18 54.55 258.947 56.45C257.714 58.3167 255.964 59.75 253.697 60.75C251.43 61.75 248.73 62.25 245.597 62.25H234.947L238.547 58.7V72H230.447ZM252.697 72L243.947 59.3H252.597L261.447 72H252.697ZM238.547 59.6L234.947 55.8H245.147C247.647 55.8 249.514 55.2667 250.747 54.2C251.98 53.1 252.597 51.6 252.597 49.7C252.597 47.7667 251.98 46.2667 250.747 45.2C249.514 44.1333 247.647 43.6 245.147 43.6H234.947L238.547 39.75V59.6Z" fill="white" style="fill:white;fill-opacity:1;"/>
</svg>
