<?xml version="1.0" encoding="UTF-8"?>
<svg id="Camada_2" data-name="Camada 2" xmlns="http://www.w3.org/2000/svg" viewBox="0 0 584.73 197.91">
  <defs>
    <style>
      .cls-1 {
        fill: #0272bd;
      }

      .cls-2 {
        fill: #737373;
      }
    </style>
  </defs>
  <g id="Camada_1-2" data-name="Camada 1">
    <g>
      <g>
        <path class="cls-2" d="M45.46,197.91c-9.45,0-16.6-2.36-21.46-7.08-4.86-4.72-7.3-11.74-7.3-21.04v-53.71c0-3.81-.81-6.55-2.43-8.25-1.62-1.69-3.98-2.54-7.08-2.54H.73c-.4,0-.73-.32-.73-.73v-11.24c0-.4.32-.73.73-.73h6.46c3.1,0,5.46-.85,7.08-2.54,1.62-1.69,2.43-4.44,2.43-8.25V28.12c0-9.44,2.43-16.49,7.3-21.14C28.86,2.33,36.01,0,45.46,0h7.31c.4,0,.73.32.73.73v11.02c0,.4-.32.73-.73.73h-4.98c-5.36,0-9.38,1.48-12.05,4.44-2.68,2.96-4.02,7.12-4.02,12.47v52.23c0,4.23-.5,7.54-1.48,9.94-.99,2.4-2.5,4.23-4.55,5.5-1.85,1.15-4.2,2.07-7.04,2.76-.45.11-.89-.24-.89-.71v-.32c0-.46.42-.81.87-.71,2.85.58,5.2,1.47,7.06,2.69,2.04,1.34,3.56,3.21,4.55,5.6.98,2.4,1.48,5.71,1.48,9.94v52.23c0,5.36,1.34,9.52,4.02,12.48,2.68,2.96,6.69,4.44,12.05,4.44h4.98c.4,0,.73.32.73.73v11.02c0,.4-.32.73-.73.73h-7.31Z"/>
        <path class="cls-2" d="M138.62,197.91c9.45,0,16.6-2.36,21.46-7.08,4.86-4.72,7.3-11.74,7.3-21.04v-53.71c0-3.81.81-6.55,2.43-8.25,1.62-1.69,3.98-2.54,7.08-2.54h6.46c.4,0,.73-.32.73-.73v-11.24c0-.4-.32-.73-.73-.73h-6.46c-3.1,0-5.46-.85-7.08-2.54-1.62-1.69-2.43-4.44-2.43-8.25V28.12c0-9.44-2.43-16.49-7.3-21.14-4.86-4.65-12.02-6.98-21.46-6.98h-7.31c-.4,0-.73.32-.73.73v11.02c0,.4.32.73.73.73h4.98c5.36,0,9.38,1.48,12.05,4.44,2.68,2.96,4.02,7.12,4.02,12.47v52.23c0,4.23.5,7.54,1.48,9.94.99,2.4,2.5,4.23,4.55,5.5,1.85,1.15,4.2,2.07,7.04,2.76.45.11.89-.24.89-.71v-.32c0-.46-.42-.81-.87-.71-2.85.58-5.2,1.47-7.06,2.69-2.04,1.34-3.56,3.21-4.55,5.6-.98,2.4-1.48,5.71-1.48,9.94v52.23c0,5.36-1.34,9.52-4.02,12.48-2.68,2.96-6.69,4.44-12.05,4.44h-4.98c-.4,0-.73.32-.73.73v11.02c0,.4.32.73.73.73h7.31Z"/>
      </g>
      <path class="cls-1" d="M123.32,162.02h-62.57l17.01-66.61c-.02-.26-.16-.55-.4-.86-1.45-1.98-6.47-4.9-8.14-6.71-19.34-21.02-2.13-52.15,22.81-51.94,3.74.03,7.63.75,11.61,2.33,24.61,9.71,25.16,43.6,2.95,56.32-.03.02-.08.05-.1.06l16.83,67.41Z"/>
    </g>
    <g>
      <g>
        <path class="cls-2" d="M272.79,150.09c-7.15,0-13.79-1.17-19.93-3.51-6.14-2.34-11.45-5.67-15.95-10-4.5-4.32-8.01-9.4-10.53-15.23-2.52-5.83-3.77-12.22-3.77-19.2s1.26-13.37,3.77-19.2c2.52-5.83,6.04-10.9,10.59-15.23,4.55-4.32,9.86-7.66,15.95-10,6.09-2.34,12.75-3.51,19.99-3.51,8.03,0,15.29,1.39,21.78,4.17,6.49,2.78,11.94,6.86,16.35,12.25l-13.77,12.71c-3.18-3.62-6.71-6.33-10.59-8.14-3.88-1.81-8.12-2.71-12.71-2.71-4.33,0-8.3.71-11.92,2.12-3.62,1.41-6.75,3.44-9.4,6.09-2.65,2.65-4.7,5.78-6.16,9.4-1.46,3.62-2.18,7.64-2.18,12.05s.73,8.43,2.18,12.05c1.46,3.62,3.51,6.75,6.16,9.4,2.65,2.65,5.78,4.68,9.4,6.09,3.62,1.41,7.59,2.12,11.92,2.12,4.59,0,8.83-.9,12.71-2.71,3.88-1.81,7.41-4.57,10.59-8.27l13.77,12.71c-4.41,5.39-9.86,9.49-16.35,12.31-6.49,2.82-13.79,4.24-21.91,4.24Z"/>
        <path class="cls-2" d="M407.79,148.5V55.82h45.28c11.65,0,20.41,2.21,26.28,6.62,5.87,4.41,8.8,10.24,8.8,17.48,0,4.86-1.19,9.07-3.57,12.64-2.38,3.57-5.65,6.33-9.8,8.27-4.15,1.94-8.92,2.91-14.3,2.91l2.52-5.43c5.83,0,10.99.95,15.49,2.85,4.5,1.9,8.01,4.7,10.53,8.41,2.52,3.71,3.77,8.25,3.77,13.64,0,7.94-3.13,14.15-9.4,18.6-6.27,4.46-15.49,6.69-27.67,6.69h-47.93ZM429.11,132.34h25.02c5.56,0,9.77-.9,12.64-2.71,2.87-1.81,4.3-4.7,4.3-8.67s-1.44-6.77-4.3-8.67c-2.87-1.9-7.08-2.85-12.64-2.85h-26.61v-15.62h22.9c5.21,0,9.2-.9,11.98-2.71,2.78-1.81,4.17-4.57,4.17-8.27s-1.39-6.33-4.17-8.14c-2.78-1.81-6.77-2.71-11.98-2.71h-21.32v60.37Z"/>
        <path class="cls-2" d="M502.64,148.5V55.82h39.59c12.89,0,22.9,2.98,30.05,8.94,7.15,5.96,10.72,14.19,10.72,24.69,0,6.88-1.63,12.82-4.9,17.81-3.27,4.99-7.9,8.8-13.9,11.45-6,2.65-13.15,3.97-21.45,3.97h-28.2l9.53-9.4v35.22h-21.45ZM524.09,115.66l-9.53-10.06h27.01c6.62,0,11.56-1.43,14.83-4.3,3.27-2.87,4.9-6.82,4.9-11.85s-1.63-9.09-4.9-11.92c-3.27-2.82-8.21-4.24-14.83-4.24h-27.01l9.53-10.19v52.56ZM561.56,148.5l-23.17-33.63h22.9l23.43,33.63h-23.17Z"/>
      </g>
      <path class="cls-2" d="M336.25,186.33c-3.71,0-7.37-.57-10.99-1.72-3.62-1.15-6.58-2.74-8.87-4.77l7.55-14.7c1.59,1.41,3.42,2.52,5.49,3.31,2.07.79,4.12,1.19,6.16,1.19,2.91,0,5.23-.69,6.95-2.05,1.72-1.37,3.29-3.64,4.7-6.82l3.71-8.74,1.59-2.25,25.55-61.43h19.86l-32.17,75.6c-2.3,5.74-4.92,10.24-7.88,13.5-2.96,3.26-6.22,5.56-9.8,6.88-3.57,1.32-7.53,1.99-11.85,1.99ZM348.43,162.37l-31.77-74.01h21.32l24.63,59.58-14.17,14.43Z"/>
    </g>
  </g>
</svg>